<svg width="16" height="14" viewBox="0 0 16 14" fill="none" xmlns="http://www.w3.org/2000/svg">
<path opacity="0.7" fill-rule="evenodd" clip-rule="evenodd" d="M16 6.91313C16 4.25912 14.8616 1.83735 12.9881 0L12.1843 0.463627C13.9628 2.16445 15.0476 4.42814 15.0476 6.91313C15.0476 9.48283 13.8876 11.8159 12 13.5346L12.8069 14C14.788 12.1429 16 9.65165 16 6.91313ZM0 5.20833V9.79167H3.02941L7 13V2L3.02941 5.20833H0ZM10.8874 2C12.1911 3.25012 13 4.99267 13 6.92014C13 8.93114 12.1195 10.7408 10.7152 12L10 11.5377C11.3296 10.4231 12.1722 8.76795 12.1722 6.92014C12.1722 5.15648 11.4046 3.56829 10.1786 2.45816L10.8874 2ZM10 6.40238C10 5.07263 9.55219 3.86919 8.82876 3L8.23947 3.4308C8.92333 4.12766 9.35936 5.18336 9.35936 6.36507C9.35936 7.67946 8.81992 8.83797 8 9.52018L8.65635 10C9.48038 9.12063 10 7.83478 10 6.40238Z" fill="black"/>
</svg>
