<svg width="26" height="29" viewBox="0 0 26 29" fill="none" xmlns="http://www.w3.org/2000/svg">
<path d="M17.1999 0.104248V2.9062L12.3999 0.166357V3.61519C5.72599 3.92903 0.399902 9.44925 0.399902 16.1999C0.399902 23.1518 6.04806 28.7999 12.9999 28.7999C19.9517 28.7999 25.5999 23.1518 25.5999 16.1999C25.601 16.1204 25.5863 16.0415 25.5567 15.9677C25.527 15.8939 25.483 15.8268 25.4272 15.7702C25.3714 15.7135 25.3048 15.6686 25.2315 15.6379C25.1581 15.6072 25.0794 15.5914 24.9999 15.5914C24.9204 15.5914 24.8417 15.6072 24.7683 15.6379C24.695 15.6686 24.6284 15.7135 24.5726 15.7702C24.5168 15.8268 24.4728 15.8939 24.4431 15.9677C24.4135 16.0415 24.3988 16.1204 24.3999 16.1999C24.3999 22.5033 19.3033 27.5999 12.9999 27.5999C6.69655 27.5999 1.5999 22.5033 1.5999 16.1999C1.5999 10.0991 6.37801 5.14352 12.3999 4.83042V8.23354L17.1999 5.4937V8.29565L18.1233 7.70503L23.6065 4.19995L17.1999 0.104248ZM13.5999 2.23354L17.0452 4.19995L13.5999 6.16636V4.30073C13.6106 4.23594 13.6106 4.16982 13.5999 4.10503V2.23354ZM18.3999 2.29565L21.38 4.19995L18.3999 6.10425V4.97339V3.42651V2.29565ZM9.3999 12C9.3999 13.35 8.1999 13.8 6.9999 13.8V15H9.3999V21.6H9.45967H10.5999V12H9.3999ZM13.1499 12L12.4937 16.4109L13.5343 16.9007C13.9327 16.4561 14.5035 16.1999 15.0999 16.1999C16.2579 16.1999 17.1999 17.142 17.1999 18.2999C17.1999 19.458 16.2579 20.4 15.0999 20.4C13.9173 20.4 12.9999 19.4328 12.9999 18.6H11.7999C11.7999 20.1978 13.3419 21.6 15.0999 21.6C16.9197 21.6 18.3999 20.1192 18.3999 18.2999C18.3999 16.4808 16.9197 15 15.0999 15C14.6799 15 14.2686 15.0802 13.8858 15.232L14.1917 13.2H17.7999V12H13.1499Z" fill="#5B5B5B"/>
</svg>
