<svg width="21" height="21" viewBox="0 0 21 21" fill="none" xmlns="http://www.w3.org/2000/svg">
<path d="M16.625 1.75C16.3929 1.75 16.1704 1.84219 16.0063 2.00628C15.8422 2.17038 15.75 2.39294 15.75 2.625V7.4025L14.875 7.98875V2.625C14.875 2.39294 14.7828 2.17038 14.6187 2.00628C14.4546 1.84219 14.2321 1.75 14 1.75C13.7679 1.75 13.5454 1.84219 13.3813 2.00628C13.2172 2.17038 13.125 2.39294 13.125 2.625V7.98875L12.25 7.4025V2.625C12.25 2.39294 12.1578 2.17038 11.9937 2.00628C11.8296 1.84219 11.6071 1.75 11.375 1.75C11.1429 1.75 10.9204 1.84219 10.7563 2.00628C10.5922 2.17038 10.5 2.39294 10.5 2.625V7.875C10.5007 8.01912 10.5371 8.16082 10.6058 8.28752C10.6745 8.41422 10.7734 8.52199 10.8937 8.60125L13.125 10.0975V18.375C13.125 18.6071 13.2172 18.8296 13.3813 18.9937C13.5454 19.1578 13.7679 19.25 14 19.25C14.2321 19.25 14.4546 19.1578 14.6187 18.9937C14.7828 18.8296 14.875 18.6071 14.875 18.375V10.0975L17.1062 8.60125C17.2266 8.52199 17.3255 8.41422 17.3942 8.28752C17.4629 8.16082 17.4993 8.01912 17.5 7.875V2.625C17.5 2.39294 17.4078 2.17038 17.2437 2.00628C17.0796 1.84219 16.8571 1.75 16.625 1.75ZM7.875 1.75C6.71468 1.75 5.60188 2.21094 4.78141 3.03141C3.96094 3.85188 3.5 4.96468 3.5 6.125V11.375C3.5 11.6071 3.59219 11.8296 3.75628 11.9937C3.92038 12.1578 4.14294 12.25 4.375 12.25H7V18.375C7 18.6071 7.09219 18.8296 7.25628 18.9937C7.42038 19.1578 7.64293 19.25 7.875 19.25C8.10706 19.25 8.32962 19.1578 8.49372 18.9937C8.65781 18.8296 8.75 18.6071 8.75 18.375V2.625C8.75 2.39294 8.65781 2.17038 8.49372 2.00628C8.32962 1.84219 8.10706 1.75 7.875 1.75ZM7 10.5H5.25V6.125C5.24972 5.58193 5.41787 5.05214 5.7313 4.60864C6.04472 4.16514 6.48799 3.82977 7 3.64875V10.5Z" fill="#BCC3CC"/>
</svg>
