<svg width="14" height="18" viewBox="0 0 14 18" fill="none" xmlns="http://www.w3.org/2000/svg">
<path d="M13.125 0C12.8929 0 12.6704 0.0921872 12.5063 0.256282C12.3422 0.420376 12.25 0.642936 12.25 0.875V5.6525L11.375 6.23875V0.875C11.375 0.642936 11.2828 0.420376 11.1187 0.256282C10.9546 0.0921872 10.7321 0 10.5 0C10.2679 0 10.0454 0.0921872 9.88128 0.256282C9.71719 0.420376 9.625 0.642936 9.625 0.875V6.23875L8.75 5.6525V0.875C8.75 0.642936 8.65781 0.420376 8.49372 0.256282C8.32962 0.0921872 8.10706 0 7.875 0C7.64293 0 7.42037 0.0921872 7.25628 0.256282C7.09219 0.420376 7 0.642936 7 0.875V6.125C7.00074 6.26912 7.03708 6.41082 7.10577 6.53752C7.17446 6.66422 7.27338 6.77199 7.39375 6.85125L9.625 8.3475V16.625C9.625 16.8571 9.71719 17.0796 9.88128 17.2437C10.0454 17.4078 10.2679 17.5 10.5 17.5C10.7321 17.5 10.9546 17.4078 11.1187 17.2437C11.2828 17.0796 11.375 16.8571 11.375 16.625V8.3475L13.6062 6.85125C13.7266 6.77199 13.8255 6.66422 13.8942 6.53752C13.9629 6.41082 13.9993 6.26912 14 6.125V0.875C14 0.642936 13.9078 0.420376 13.7437 0.256282C13.5796 0.0921872 13.3571 0 13.125 0ZM4.375 0C3.21468 0 2.10188 0.460936 1.28141 1.28141C0.460936 2.10188 0 3.21468 0 4.375V9.625C0 9.85706 0.0921874 10.0796 0.256282 10.2437C0.420376 10.4078 0.642935 10.5 0.875 10.5H3.5V16.625C3.5 16.8571 3.59219 17.0796 3.75628 17.2437C3.92038 17.4078 4.14293 17.5 4.375 17.5C4.60706 17.5 4.82962 17.4078 4.99372 17.2437C5.15781 17.0796 5.25 16.8571 5.25 16.625V0.875C5.25 0.642936 5.15781 0.420376 4.99372 0.256282C4.82962 0.0921872 4.60706 0 4.375 0ZM3.5 8.75H1.75V4.375C1.74972 3.83193 1.91787 3.30214 2.2313 2.85864C2.54472 2.41514 2.98799 2.07977 3.5 1.89875V8.75Z" fill="#3E3E3E"/>
</svg>
