<svg width="22" height="22" viewBox="0 0 22 22" fill="none" xmlns="http://www.w3.org/2000/svg">
<path d="M18.3528 1.86L17.8224 2.39032L17.2921 1.85998L16.5952 1.16304L18.3528 1.86ZM18.3528 1.86L19.0497 1.16304L18.3528 1.86ZM19.1699 4.79844L19.0799 4.88841L16.1116 1.92007L16.2016 1.8301L17.2921 2.92064L17.8224 3.45098L17.8224 3.45097L18.0793 3.70785L19.1699 4.79844ZM19.3066 4.93517C19.3065 4.93511 19.3065 4.93505 19.3064 4.93499L19.3066 4.93517Z" stroke="#BCC3CC" stroke-width="1.5"/>
<path d="M1.8301 16.2016L1.92007 16.1116L4.88838 19.0799L4.79842 19.1699L3.70785 18.0793L3.45102 17.8225L3.45103 17.8225L2.92069 17.2922L1.8301 16.2016ZM4.93517 19.3066L4.93516 19.3066C4.93517 19.3066 4.93517 19.3066 4.93517 19.3066ZM1.41988 19.3066L1.41987 19.3066L1.41988 19.3066Z" stroke="#BCC3CC" stroke-width="1.5"/>
<path d="M13.0243 2.52851L13.0243 2.52853L18.4715 7.97571C18.6126 8.11689 18.6126 8.3483 18.4715 8.48948L17.1806 9.78038L17.1805 9.78042C17.1103 9.85066 17.0187 9.88627 16.9237 9.88627C16.8287 9.88627 16.7371 9.85065 16.6669 9.78042L16.6668 9.78038L14.3368 7.45039L14.08 7.19352L13.8065 6.92006L13.5496 6.66319L11.2196 4.3332C11.0785 4.19203 11.0785 3.96063 11.2196 3.81946L12.5106 2.52853L12.5106 2.52849C12.6517 2.38736 12.8831 2.38734 13.0243 2.52851ZM6.92004 13.8065L7.1935 14.08L7.45037 14.3369L9.78036 16.6668C9.92153 16.808 9.92153 17.0394 9.78036 17.1806L8.48943 18.4715L8.48939 18.4716C8.41917 18.5418 8.32756 18.5774 8.23256 18.5774C8.13756 18.5774 8.04595 18.5418 7.97574 18.4716L7.97569 18.4715L2.52851 13.0243C2.38734 12.8832 2.38734 12.6518 2.52851 12.5106L3.81944 11.2197C3.96061 11.0785 4.19205 11.0785 4.33316 11.2196L4.33318 11.2197L6.66317 13.5497L6.92004 13.8065Z" stroke="#BCC3CC" stroke-width="1.5"/>
</svg>
