<svg width="19" height="19" viewBox="0 0 19 19" fill="none" xmlns="http://www.w3.org/2000/svg">
<path d="M17.3528 0.86L16.8224 1.39032L16.2921 0.859984L15.5952 0.16304L17.3528 0.86ZM17.3528 0.86L18.0497 0.16304L17.3528 0.86ZM18.1699 3.79844L18.0799 3.88841L15.1116 0.920075L15.2016 0.830102L16.2921 1.92064L16.8224 2.45098L16.8224 2.45097L17.0793 2.70785L18.1699 3.79844ZM18.3066 3.93517C18.3065 3.93511 18.3065 3.93505 18.3064 3.93499L18.3066 3.93517Z" stroke="#3E3E3E" stroke-width="1.5"/>
<path d="M0.8301 15.2016L0.920072 15.1116L3.88838 18.0799L3.79842 18.1699L2.70785 17.0793L2.45102 16.8225L2.45103 16.8225L1.92069 16.2922L0.8301 15.2016ZM3.93517 18.3066L3.93516 18.3066C3.93517 18.3066 3.93517 18.3066 3.93517 18.3066ZM0.419883 18.3066L0.419874 18.3066L0.419883 18.3066Z" stroke="#3E3E3E" stroke-width="1.5"/>
<path d="M12.0243 1.52851L12.0243 1.52853L17.4715 6.97571C17.6126 7.11689 17.6126 7.3483 17.4715 7.48948L16.1806 8.78038L16.1805 8.78042C16.1103 8.85066 16.0187 8.88627 15.9237 8.88627C15.8287 8.88627 15.7371 8.85065 15.6669 8.78042L15.6668 8.78038L13.3368 6.45039L13.08 6.19352L12.8065 5.92006L12.5496 5.66319L10.2196 3.3332C10.0785 3.19203 10.0785 2.96063 10.2196 2.81946L11.5106 1.52853L11.5106 1.52849C11.6517 1.38736 11.8831 1.38734 12.0243 1.52851ZM5.92004 12.8065L6.1935 13.08L6.45037 13.3369L8.78036 15.6668C8.92153 15.808 8.92153 16.0394 8.78036 16.1806L7.48943 17.4715L7.48939 17.4716C7.41917 17.5418 7.32756 17.5774 7.23256 17.5774C7.13756 17.5774 7.04595 17.5418 6.97574 17.4716L6.97569 17.4715L1.52851 12.0243C1.38734 11.8832 1.38734 11.6518 1.52851 11.5106L2.81944 10.2197C2.96061 10.0785 3.19205 10.0785 3.33316 10.2196L3.33318 10.2197L5.66317 12.5497L5.92004 12.8065Z" stroke="#3E3E3E" stroke-width="1.5"/>
</svg>
