<svg width="20" height="23" viewBox="0 0 20 23" fill="none" xmlns="http://www.w3.org/2000/svg">
<path d="M15.543 1.66479C14.8098 0.809416 10.695 -1.25463 8.45479 1.06717C6.21451 3.38893 8.59463 5.02927 9.45019 5.42408C10.3056 5.81889 12.7496 7.3037 13.6358 5.75588C13.8722 6.36155 13.7127 10.5178 12.3157 11.7988C11.6079 11.1239 10.5862 10.7002 9.45024 10.7002C8.51751 10.7002 7.66209 10.9859 6.99394 11.4616C6.1119 10.0459 4.44313 9.09001 2.52802 9.09001C1.60979 9.09001 0.748544 9.31072 0.00265289 9.69553V10.1905L0 10.1899V22.3488C0 22.3488 3.54385 22.5321 3.82733 18.4384C4.68942 19.6903 7.43598 20.6425 9.12857 20.5863C11.7872 20.4981 15.3199 20.3816 18.3126 17.5127C18.5891 17.2375 18.8109 16.9125 18.9616 16.5529C20.3462 13.6728 16.2761 2.52016 15.543 1.66479Z" fill="#152370"/>
</svg>
