<svg width="18" height="18" viewBox="0 0 18 18" fill="none" xmlns="http://www.w3.org/2000/svg">
<path fill-rule="evenodd" clip-rule="evenodd" d="M2.7 1.8H15.3C15.7971 1.8 16.2 2.20294 16.2 2.7V15.3C16.2 15.7971 15.7971 16.2 15.3 16.2H2.7C2.20294 16.2 1.8 15.7971 1.8 15.3V2.7C1.8 2.20294 2.20294 1.8 2.7 1.8ZM0 2.7C0 1.20883 1.20883 0 2.7 0H15.3C16.7912 0 18 1.20883 18 2.7V15.3C18 16.7912 16.7912 18 15.3 18H2.7C1.20883 18 0 16.7912 0 15.3V2.7ZM9 9C6.51472 9 4.5 6.58234 4.5 3.6H6.3C6.3 5.90945 7.80218 7.2 9 7.2C10.1978 7.2 11.7 5.90945 11.7 3.6H13.5C13.5 6.58234 11.4853 9 9 9Z" fill="#BCC3CC"/>
</svg>
