<svg width="22" height="22" viewBox="0 0 22 22" fill="none" xmlns="http://www.w3.org/2000/svg">
<path fill-rule="evenodd" clip-rule="evenodd" d="M4.7 3.8H17.3C17.7971 3.8 18.2 4.20294 18.2 4.7V17.3C18.2 17.7971 17.7971 18.2 17.3 18.2H4.7C4.20294 18.2 3.8 17.7971 3.8 17.3V4.7C3.8 4.20294 4.20294 3.8 4.7 3.8ZM2 4.7C2 3.20883 3.20883 2 4.7 2H17.3C18.7912 2 20 3.20883 20 4.7V17.3C20 18.7912 18.7912 20 17.3 20H4.7C3.20883 20 2 18.7912 2 17.3V4.7ZM11 11C8.51472 11 6.5 8.58234 6.5 5.6H8.3C8.3 7.90945 9.80218 9.2 11 9.2C12.1978 9.2 13.7 7.90945 13.7 5.6H15.5C15.5 8.58234 13.4853 11 11 11Z" fill="#3E3E3E"/>
</svg>
