<svg width="9" height="6" viewBox="0 0 9 6" fill="none" xmlns="http://www.w3.org/2000/svg">
<path d="M8.83294 0.16697C8.72168 0.0556247 8.58981 -1.50189e-06 8.43743 -1.47525e-06L0.562542 -9.8358e-08C0.410101 -7.17044e-08 0.278316 0.0556262 0.166971 0.166971C0.0556263 0.278439 7.17259e-08 0.410224 9.83634e-08 0.562573C1.24996e-07 0.714891 0.0556264 0.846677 0.166971 0.958052L4.10443 4.89551C4.2159 5.00685 4.34768 5.0626 4.5 5.0626C4.65232 5.0626 4.78423 5.00685 4.89548 4.89551L8.83294 0.95802C8.94416 0.846675 9 0.71489 9 0.562541C9 0.410223 8.94416 0.278438 8.83294 0.16697Z" fill="white"/>
</svg>
