<svg width="19" height="19" viewBox="0 0 19 19" fill="none" xmlns="http://www.w3.org/2000/svg">
<path opacity="0.4" d="M13.623 0H5.3865C2.166 0 0 2.261 0 5.624V13.3855C0 16.739 2.166 19 5.3865 19H13.623C16.8435 19 19 16.739 19 13.3855V5.624C19 2.261 16.8435 0 13.623 0Z" fill="white"/>
<path d="M12.895 13.1237C12.7705 13.1237 12.6451 13.0914 12.5302 13.0239L8.80049 10.799C8.58579 10.6698 8.45374 10.4371 8.45374 10.1863V5.39164C8.45374 4.99834 8.77294 4.67914 9.16624 4.67914C9.55954 4.67914 9.87874 4.99834 9.87874 5.39164V9.78159L13.2607 11.7984C13.598 12.0008 13.7091 12.4378 13.5077 12.776C13.3738 12.9992 13.1372 13.1237 12.895 13.1237Z" fill="white"/>
</svg>
