<svg width="26" height="29" viewBox="0 0 26 29" fill="none" xmlns="http://www.w3.org/2000/svg">
<path d="M8.79996 0.104248L2.39332 4.19995L3.18317 4.70503L8.79996 8.29565V5.4937L13.6 8.23354V4.83042C19.6219 5.14352 24.4 10.0991 24.4 16.1999C24.4 22.5033 19.3033 27.5999 13 27.5999C6.69661 27.5999 1.59996 22.5033 1.59996 16.1999C1.60109 16.1204 1.5864 16.0415 1.55675 15.9677C1.5271 15.8939 1.48309 15.8268 1.42726 15.7702C1.37143 15.7135 1.30491 15.6686 1.23155 15.6379C1.1582 15.6072 1.07948 15.5914 0.999962 15.5914C0.920447 15.5914 0.841725 15.6072 0.768371 15.6379C0.695017 15.6686 0.628493 15.7135 0.572666 15.7702C0.51684 15.8268 0.472823 15.8939 0.443175 15.9677C0.413527 16.0415 0.398838 16.1204 0.399962 16.1999C0.399962 23.1518 6.04812 28.7999 13 28.7999C19.9518 28.7999 25.6 23.1518 25.6 16.1999C25.6 9.44925 20.2739 3.92903 13.6 3.61519V0.166357L8.79996 2.9062V0.104248ZM12.4 2.23354V4.09917C12.3893 4.16396 12.3893 4.23008 12.4 4.29487V6.16636L8.95465 4.19995L12.4 2.23354ZM7.59996 2.29565V3.42651V4.97339V6.10425L4.61988 4.19995L7.59996 2.29565ZM9.39996 11.4C9.39996 12.75 8.19996 13.2 6.99996 13.2V14.4H9.39996V21H9.45973H10.6V11.4H9.39996ZM13.15 11.4L12.4937 15.8109L13.5343 16.3007C13.9327 15.8561 14.5036 15.5999 15.1 15.5999C16.258 15.5999 17.2 16.542 17.2 17.6999C17.2 18.858 16.258 19.7999 15.1 19.7999C13.9174 19.7999 13 18.8328 13 18H11.8C11.8 19.5977 13.342 21 15.1 21C16.9198 21 18.4 19.5191 18.4 17.6999C18.4 15.8808 16.9198 14.4 15.1 14.4C14.68 14.4 14.2687 14.4802 13.8859 14.632L14.1918 12.6H17.8V11.4H13.15Z" fill="#5B5B5B"/>
</svg>
