<svg width="25" height="25" viewBox="0 0 25 25" fill="none" xmlns="http://www.w3.org/2000/svg">
<g filter="url(#filter0_d)">
<path d="M14.0035 10.4956L20.6885 3.81388C21.1038 3.3991 21.1038 2.72612 20.6885 2.31134C20.2732 1.89622 19.6005 1.89622 19.1852 2.31134L12.5002 8.99304L5.81478 2.31134C5.39945 1.89622 4.72683 1.89622 4.3115 2.31134C3.89617 2.72612 3.89617 3.3991 4.3115 3.81388L10.9969 10.4956L4.3115 17.1773C3.89617 17.592 3.89617 18.265 4.3115 18.6798C4.51917 18.887 4.79133 18.9908 5.06314 18.9908C5.33495 18.9908 5.60712 18.887 5.81478 18.6794L12.5002 11.9977L19.1852 18.6794C19.3929 18.887 19.665 18.9908 19.9369 18.9908C20.2087 18.9908 20.4808 18.887 20.6885 18.6794C21.1038 18.2647 21.1038 17.5917 20.6885 17.1769L14.0035 10.4956Z" fill="white"/>
</g>
<defs>
<filter id="filter0_d" x="0" y="0" width="25" height="24.9908" filterUnits="userSpaceOnUse" color-interpolation-filters="sRGB">
<feFlood flood-opacity="0" result="BackgroundImageFix"/>
<feColorMatrix in="SourceAlpha" type="matrix" values="0 0 0 0 0 0 0 0 0 0 0 0 0 0 0 0 0 0 127 0"/>
<feOffset dy="2"/>
<feGaussianBlur stdDeviation="2"/>
<feColorMatrix type="matrix" values="0 0 0 0 0 0 0 0 0 0 0 0 0 0 0 0 0 0 0.23 0"/>
<feBlend mode="normal" in2="BackgroundImageFix" result="effect1_dropShadow"/>
<feBlend mode="normal" in="SourceGraphic" in2="effect1_dropShadow" result="shape"/>
</filter>
</defs>
</svg>
