<svg width="12" height="16" viewBox="0 0 12 16" fill="none" xmlns="http://www.w3.org/2000/svg">
<path d="M9.5194 1.3245C8.85056 0.774409 8.06735 0.380573 7.22692 0.171723C6.38649 -0.0371266 5.51004 -0.0557218 4.6615 0.117294C3.53166 0.345515 2.49508 0.904211 1.68326 1.72249C0.871454 2.54078 0.321009 3.58177 0.10177 4.71339C-0.0583322 5.56186 -0.0292392 6.43521 0.186974 7.27115C0.403186 8.10709 0.801192 8.88503 1.35261 9.54947C1.86435 10.1269 2.15767 10.8654 2.18165 11.6366V13.8183C2.18165 14.3969 2.4115 14.9519 2.82065 15.361C3.2298 15.7701 3.78472 16 4.36334 16H7.27226C7.85088 16 8.4058 15.7701 8.81495 15.361C9.22409 14.9519 9.45395 14.3969 9.45395 13.8183V11.7748C9.47836 10.9233 9.79117 10.1054 10.3412 9.45493C11.3048 8.26284 11.7591 6.73859 11.6052 5.21345C11.4513 3.68831 10.7018 2.28552 9.5194 1.30995V1.3245ZM7.99949 13.8183C7.99949 14.0112 7.92287 14.1962 7.78649 14.3325C7.6501 14.4689 7.46513 14.5455 7.27226 14.5455H4.36334C4.17046 14.5455 3.98549 14.4689 3.84911 14.3325C3.71273 14.1962 3.63611 14.0112 3.63611 13.8183V13.0911H7.99949V13.8183ZM9.21396 8.55316C8.48274 9.42046 8.05611 10.5036 7.99949 11.6366H6.54503V9.45493C6.54503 9.26206 6.46841 9.07708 6.33203 8.9407C6.19564 8.80432 6.01067 8.7277 5.8178 8.7277C5.62492 8.7277 5.43995 8.80432 5.30357 8.9407C5.16719 9.07708 5.09057 9.26206 5.09057 9.45493V11.6366H3.63611C3.61692 10.5226 3.20482 9.45112 2.47254 8.61134C1.9894 8.03247 1.66451 7.33827 1.52955 6.59644C1.39459 5.85461 1.45416 5.09047 1.70247 4.37852C1.95077 3.66657 2.37932 3.03112 2.94635 2.53412C3.51337 2.03712 4.1995 1.69553 4.93785 1.54267C5.5724 1.41201 6.22807 1.4243 6.85728 1.57864C7.48648 1.73298 8.07342 2.02549 8.57549 2.43494C9.07755 2.84439 9.48214 3.36051 9.75988 3.94581C10.0376 4.53112 10.1815 5.17092 10.1812 5.81878C10.1866 6.81498 9.84454 7.78191 9.21396 8.55316Z" fill="#002333"/>
</svg>
