<svg width="24" height="22" viewBox="0 0 24 22" fill="none" xmlns="http://www.w3.org/2000/svg">
<path d="M16.0636 12.1636L14.8636 10.9636C15.3364 9.67273 15.0909 8.6 14.1273 7.74545C13.1636 6.89091 12.1182 6.67273 10.9909 7.09091L9.79091 5.89091C10.1 5.69091 10.4455 5.54545 10.8273 5.45455C11.2091 5.36364 11.6 5.31818 12 5.31818C13.2909 5.31818 14.3864 5.76818 15.2864 6.66818C16.1864 7.56818 16.6364 8.66364 16.6364 9.95455C16.6364 10.3545 16.5864 10.75 16.4864 11.1409C16.3864 11.5318 16.2455 11.8727 16.0636 12.1636ZM19.5818 15.6818L18.4909 14.5909C19.3818 13.9364 20.1591 13.2045 20.8227 12.3955C21.4864 11.5864 21.9727 10.7727 22.2818 9.95455C21.3727 7.93636 20.0091 6.34091 18.1909 5.16818C16.3727 3.99545 14.4 3.40909 12.2727 3.40909C11.5091 3.40909 10.7273 3.48182 9.92727 3.62727C9.12727 3.77273 8.5 3.94545 8.04545 4.14545L6.79091 2.86364C7.42727 2.57273 8.24091 2.31818 9.23182 2.1C10.2227 1.88182 11.1909 1.77273 12.1364 1.77273C14.7364 1.77273 17.1136 2.51364 19.2682 3.99545C21.4227 5.47727 23 7.46364 24 9.95455C23.5273 11.1182 22.9182 12.1818 22.1727 13.1455C21.4273 14.1091 20.5636 14.9545 19.5818 15.6818ZM21.1636 21.8455L16.5818 17.3455C15.9455 17.6 15.2273 17.7955 14.4273 17.9318C13.6273 18.0682 12.8182 18.1364 12 18.1364C9.34546 18.1364 6.93636 17.3955 4.77273 15.9136C2.60909 14.4318 1.01818 12.4455 0 9.95455C0.363636 9.00909 0.868182 8.08636 1.51364 7.18636C2.15909 6.28636 2.94545 5.42727 3.87273 4.60909L0.436364 1.17273L1.58182 0L22.2273 20.6455L21.1636 21.8455ZM4.99091 5.75455C4.31818 6.24545 3.66818 6.89091 3.04091 7.69091C2.41364 8.49091 1.96364 9.24545 1.69091 9.95455C2.61818 11.9727 4.01364 13.5682 5.87727 14.7409C7.74091 15.9136 9.85455 16.5 12.2182 16.5C12.8182 16.5 13.4091 16.4636 13.9909 16.3909C14.5727 16.3182 15.0091 16.2091 15.3 16.0636L13.5545 14.3182C13.3545 14.4091 13.1091 14.4773 12.8182 14.5227C12.5273 14.5682 12.2545 14.5909 12 14.5909C10.7273 14.5909 9.63636 14.1455 8.72727 13.2545C7.81818 12.3636 7.36364 11.2636 7.36364 9.95455C7.36364 9.68182 7.38636 9.40909 7.43182 9.13636C7.47727 8.86364 7.54545 8.61818 7.63636 8.4L4.99091 5.75455Z" fill="white"/>
</svg>
