<svg width="19" height="24" viewBox="0 0 19 24" xmlns="http://www.w3.org/2000/svg" version="1.1">
<path fill="primary" d="M8.73852 5.78721C9.26144 4.96676 9.99282 4.45246 10.9327 4.24431C11.8725 4.03615 12.7526 4.19353 13.5731 4.71645C14.3935 5.23937 14.9078 5.97074 15.116 6.91058C15.3241 7.85042 15.1668 8.73056 14.6438 9.551C14.1209 10.3714 13.3895 10.8857 12.4497 11.0939C11.5099 11.3021 10.6297 11.1447 9.80928 10.6218C8.98884 10.0988 8.47454 9.36747 8.26638 8.42763C8.05823 7.4878 8.21561 6.60765 8.73852 5.78721ZM5.78587 3.90531C4.97038 5.1848 4.61466 6.58459 4.71871 8.1047C4.82326 9.62402 5.36502 10.9725 6.34398 12.15L5.77941 13.0358L2.87868 13.6783L3.52113 16.579L0.0637185 17.2819L1.90531 23.0229L4.80605 22.3805L9.88717 14.4083C11.3785 14.7819 12.8324 14.6993 14.2487 14.1604C15.6651 13.6216 16.781 12.7124 17.5965 11.4329C18.6418 9.7928 18.9566 8.03252 18.5408 6.15205C18.1237 4.27188 17.0951 2.80912 15.455 1.76379C13.8149 0.718461 12.0546 0.4037 10.1741 0.819509C8.29395 1.23661 6.8312 2.26521 5.78587 3.90531Z" />
</svg>
