<svg width="20" height="20" viewBox="0 0 20 20" fill="none" xmlns="http://www.w3.org/2000/svg">
<path d="M18.6413 19.9728C16.2862 19.9728 13.9855 19.4475 11.7391 18.3967C9.49275 17.346 7.50471 15.9554 5.775 14.225C4.04456 12.4953 2.64964 10.5072 1.59022 8.26087C0.530073 6.01449 0 3.70471 0 1.33152C0 0.951087 0.126812 0.634058 0.380435 0.380435C0.634058 0.126812 0.960145 0 1.3587 0H5.76087C6.10507 0 6.40399 0.0996377 6.65761 0.298913C6.91123 0.498188 7.06522 0.769928 7.11957 1.11413L7.82609 4.78261C7.88043 5.1087 7.87609 5.39855 7.81304 5.65217C7.74927 5.9058 7.6087 6.13225 7.3913 6.33152L4.75543 8.94022C5.48007 10.154 6.38152 11.3 7.45978 12.3783C8.53732 13.4558 9.7192 14.3841 11.0054 15.163L13.587 12.5815C13.8043 12.3822 14.067 12.2373 14.375 12.1467C14.683 12.0562 14.9909 12.038 15.2989 12.0924L18.8859 12.8261C19.2301 12.9167 19.5018 13.0797 19.7011 13.3152C19.9004 13.5507 20 13.8406 20 14.1848V18.6413C20 19.0217 19.8732 19.3388 19.6196 19.5924C19.3659 19.846 19.0399 19.9728 18.6413 19.9728Z" fill="primary"/>
</svg>
