<svg width="17" height="20" viewBox="0 0 17 20" fill="none" xmlns="http://www.w3.org/2000/svg">
<path d="M12.4722 17.5C12.787 16.8889 13.0278 16.2454 13.1944 15.5694C13.3611 14.8935 13.4444 14.1944 13.4444 13.4722C13.4444 11.9907 13.1204 10.6343 12.4722 9.40278C11.8241 8.1713 10.9444 7.14815 9.83333 6.33333L7.27778 8.88889V0H16.1667L13.6111 2.55556C14.5741 3.42593 15.3426 4.46296 15.9167 5.66667C16.4907 6.87037 16.7778 8.17593 16.7778 9.58333C16.7778 11.2685 16.3843 12.7963 15.5972 14.1667C14.8102 15.537 13.7685 16.6481 12.4722 17.5ZM0.611111 20L3.16667 17.4444C2.18519 16.5741 1.41204 15.537 0.847223 14.3333C0.282408 13.1296 0 11.8241 0 10.4167C0 8.73148 0.393519 7.2037 1.18056 5.83333C1.96759 4.46296 3.01852 3.35185 4.33333 2.5C4.01852 3.11111 3.77315 3.75463 3.59722 4.43056C3.4213 5.10648 3.33333 5.80556 3.33333 6.52778C3.33333 8.00926 3.66204 9.36574 4.31944 10.5972C4.97685 11.8287 5.85185 12.8519 6.94444 13.6667L9.5 11.1111V20H0.611111Z" fill="#63CDDA"/>
</svg>
