<svg width="45" height="45" viewBox="0 0 45 45" fill="none" xmlns="http://www.w3.org/2000/svg">
<path d="M22.162 40.543C13.558 40.543 6.558 33.545 6.558 24.94C6.558 16.338 13.558 9.338 22.162 9.338C30.766 9.338 37.764 16.338 37.764 24.94C37.764 33.545 30.766 40.543 22.162 40.543ZM22.162 4.88C11.084 4.88 2.101 13.863 2.101 24.941C2.102 36.019 11.084 45 22.162 45C33.24 45 42.223 36.019 42.223 24.94C42.223 13.863 33.24 4.88 22.162 4.88ZM10.266 0L13.123 3.424L2.853 11.991L0 8.567L10.266 0ZM34.057 0L44.327 8.569L41.473 11.991L31.197 3.427L34.057 0ZM23.275 13.796H19.933V27.169L30.519 33.523L32.191 30.781L23.275 25.498V13.796Z" fill="#63CDDA"/>
</svg>
