<svg width="17" height="17" viewBox="0 0 17 17" fill="none" xmlns="http://www.w3.org/2000/svg">
<path d="M10.7067 9.65865H11.0672L11.2924 9.37718L13.9078 6.10794L14.1991 5.74381L14.0014 5.32147L13.3221 5.63942C14.0014 5.32147 14.0011 5.3209 14.0009 5.32033L14.0003 5.31915L13.9991 5.31666L13.9965 5.31113L13.99 5.29795C13.9851 5.28824 13.9791 5.2767 13.972 5.26345C13.9578 5.23696 13.939 5.20363 13.915 5.16447C13.8669 5.08616 13.7979 4.9845 13.7036 4.86778C13.5143 4.63374 13.2247 4.34136 12.8003 4.05642C11.9449 3.48212 10.5892 2.96875 8.5 2.96875C6.41085 2.96875 5.05506 3.48212 4.19971 4.05642C3.77533 4.34136 3.48565 4.63374 3.29643 4.86778C3.20206 4.9845 3.13312 5.08616 3.08503 5.16447C3.06099 5.20363 3.04216 5.23696 3.02795 5.26345C3.02085 5.2767 3.0149 5.28824 3.01004 5.29795L3.00354 5.31113L3.00089 5.31666L2.9997 5.31915L2.99915 5.32033C2.99888 5.3209 2.99862 5.32147 3.67788 5.63942L2.99862 5.32147L2.80093 5.74381L3.09223 6.10794L5.70762 9.37718L5.9328 9.65865H6.29327H10.7067ZM3.1875 0.75H13.8125C15.1591 0.75 16.25 1.84091 16.25 3.1875V13.8125C16.25 15.1591 15.1591 16.25 13.8125 16.25H3.1875C1.84091 16.25 0.75 15.1591 0.75 13.8125V3.1875C0.75 1.84091 1.84091 0.75 3.1875 0.75Z" stroke="#002333" stroke-width="1.5"/>
<g filter="url(#filter0_d)">
<path d="M9.14423 7.50486L9.39691 7.22647L9.41324 7.50486H9.14423Z" stroke="#002333" stroke-width="1.5"/>
</g>
<defs>
<filter id="filter0_d" x="3.45059" y="5.40082" width="10.7579" height="10.854" filterUnits="userSpaceOnUse" color-interpolation-filters="sRGB">
<feFlood flood-opacity="0" result="BackgroundImageFix"/>
<feColorMatrix in="SourceAlpha" type="matrix" values="0 0 0 0 0 0 0 0 0 0 0 0 0 0 0 0 0 0 127 0"/>
<feOffset dy="4"/>
<feGaussianBlur stdDeviation="2"/>
<feColorMatrix type="matrix" values="0 0 0 0 0 0 0 0 0 0 0 0 0 0 0 0 0 0 0.25 0"/>
<feBlend mode="normal" in2="BackgroundImageFix" result="effect1_dropShadow"/>
<feBlend mode="normal" in="SourceGraphic" in2="effect1_dropShadow" result="shape"/>
</filter>
</defs>
</svg>
