<svg width="32" height="32" viewBox="0 0 32 32" fill="none" xmlns="http://www.w3.org/2000/svg">
<path d="M8.119 31.478C7.563 31.478 7.007 31.267 6.583 30.844L0.637003 24.895C0.227003 24.485 3.28994e-06 23.94 3.28994e-06 23.359C-0.00099671 22.778 0.226003 22.231 0.637003 21.82L2.964 19.492C3.256 19.2 3.731 19.198 4.025 19.492C4.318 19.785 4.318 20.26 4.025 20.553L1.698 22.882C1.569 23.01 1.499 23.179 1.5 23.358C1.5 23.538 1.569 23.707 1.696 23.833L7.643 29.782C7.906 30.044 8.333 30.043 8.596 29.781L10.924 27.453C11.217 27.16 11.692 27.16 11.985 27.453C12.278 27.746 12.278 28.221 11.985 28.514L9.657 30.842C9.233 31.266 8.677 31.478 8.119 31.478Z" fill="primary"/>
<path d="M27.9832 12.206C27.7912 12.206 27.5992 12.133 27.4532 11.986C27.1602 11.693 27.1602 11.218 27.4532 10.925L29.8032 8.575C30.0652 8.312 30.0652 7.885 29.8022 7.622L23.8562 1.675C23.6022 1.422 23.1572 1.42 22.9052 1.675L20.5532 4.025C20.2592 4.319 19.7842 4.317 19.4922 4.025C19.1992 3.732 19.1992 3.257 19.4922 2.964L21.8432 0.614001C22.6612 -0.205999 24.0962 -0.205999 24.9162 0.614001L30.8632 6.561C31.7102 7.409 31.7102 8.788 30.8642 9.635L28.5132 11.985C28.3672 12.133 28.1762 12.206 27.9832 12.206Z" fill="primary"/>
<path d="M14.4801 31.168C13.8991 31.168 13.3531 30.942 12.9421 30.531L6.06806 23.657C5.77506 23.364 5.77506 22.889 6.06806 22.596C6.36106 22.303 6.83606 22.303 7.12906 22.596L14.0041 29.47C14.2611 29.727 14.7031 29.726 14.9581 29.47L16.3841 28.044C16.6461 27.781 16.6461 27.355 16.3841 27.092L4.38606 15.095C4.12406 14.833 3.69606 14.833 3.43206 15.095L2.00706 16.521C1.74406 16.784 1.74406 17.212 2.00806 17.475L4.02506 19.493C4.31806 19.786 4.31806 20.261 4.02506 20.554C3.73206 20.847 3.25706 20.847 2.96406 20.554L0.946059 18.536C0.0980586 17.687 0.0980586 16.307 0.946059 15.461L2.37206 14.034C3.22206 13.186 4.60206 13.189 5.44606 14.035L17.4441 26.033C18.2911 26.88 18.2911 28.258 17.4451 29.106L16.0181 30.532C15.6071 30.942 15.0621 31.168 14.4801 31.168Z" fill="primary"/>
<path d="M27.568 18.08C26.988 18.08 26.442 17.854 26.031 17.443L14.035 5.445C13.625 5.037 13.398 4.491 13.397 3.91C13.397 3.329 13.623 2.783 14.034 2.372L15.46 0.945998C16.308 0.0979975 17.687 0.0979975 18.534 0.945998L25.462 7.873C25.755 8.166 25.755 8.641 25.462 8.934C25.169 9.227 24.694 9.227 24.401 8.934L17.473 2.007C17.209 1.745 16.784 1.745 16.52 2.007L15.094 3.433C14.967 3.56 14.897 3.73 14.897 3.91C14.898 4.09 14.967 4.259 15.094 4.385L27.092 16.384C27.349 16.641 27.79 16.639 28.043 16.384L29.471 14.958C29.734 14.695 29.734 14.268 29.471 14.005L27.452 11.987C27.159 11.694 27.159 11.219 27.452 10.926C27.745 10.633 28.22 10.633 28.513 10.926L30.532 12.944C31.38 13.792 31.38 15.171 30.532 16.018L29.105 17.444C28.695 17.854 28.149 18.08 27.568 18.08Z" fill="primary"/>
<path d="M12.781 23.181C12.589 23.181 12.397 23.108 12.251 22.961C11.958 22.668 11.958 22.193 12.251 21.9L21.898 12.253C22.191 11.96 22.666 11.96 22.959 12.253C23.252 12.546 23.252 13.021 22.959 13.314L13.312 22.961C13.165 23.107 12.974 23.181 12.781 23.181Z" fill="primary"/>
<path d="M9.04809 19.447C8.85609 19.447 8.66409 19.374 8.51809 19.227C8.22509 18.934 8.22509 18.459 8.51809 18.166L18.1651 8.519C18.4581 8.226 18.9331 8.226 19.2261 8.519C19.5191 8.812 19.5191 9.287 19.2261 9.58L9.57909 19.227C9.43209 19.374 9.24009 19.447 9.04809 19.447Z" fill="primary"/>
</svg>
