<svg width="18" height="24" viewBox="0 0 18 24" fill="none" xmlns="http://www.w3.org/2000/svg">
<path d="M2.40264 8.25013H11.8409V5.67379C11.8409 4.76683 11.5227 3.99514 10.8862 3.35869C10.2489 2.72132 9.4767 2.40264 8.56974 2.40264C7.66279 2.40264 6.89063 2.72132 6.25326 3.35869C5.61681 3.99514 5.29859 4.76683 5.29859 5.67379H2.89595C2.89595 4.09148 3.45087 2.75004 4.56071 1.64947C5.66962 0.549823 7.00596 0 8.56974 0C10.152 0 11.4935 0.549823 12.5941 1.64947C13.6937 2.75004 14.2435 4.09148 14.2435 5.67379V8.25013H14.7368C15.3927 8.25013 15.9569 8.48683 16.4294 8.96022C16.9028 9.43269 17.1395 9.99734 17.1395 10.6542V21.5974C17.1395 22.2727 16.9028 22.842 16.4294 23.3052C15.9569 23.7684 15.3927 24 14.7368 24H2.40264C1.72729 24 1.15801 23.7684 0.694807 23.3052C0.231602 22.842 0 22.2727 0 21.5974V10.6542C0 9.99734 0.236697 9.43269 0.710092 8.96022C1.18256 8.48683 1.74674 8.25013 2.40264 8.25013ZM8.56974 18.2095C9.14875 18.2095 9.64067 18.0071 10.0455 17.6022C10.4513 17.1965 10.6542 16.7041 10.6542 16.1251C10.6542 15.5461 10.4513 15.0541 10.0455 14.6493C9.64067 14.2435 9.14875 14.0406 8.56974 14.0406C7.99074 14.0406 7.49881 14.2482 7.09397 14.6632C6.68821 15.0782 6.48532 15.5655 6.48532 16.1251C6.48532 16.7041 6.68821 17.1965 7.09397 17.6022C7.49881 18.0071 7.99074 18.2095 8.56974 18.2095Z" fill="white"/>
</svg>
