<svg width="30" height="30" viewBox="0 0 30 30" fill="none" xmlns="http://www.w3.org/2000/svg">
<rect x="29.5" y="0.5" width="29" height="29" rx="14.5" transform="rotate(90 29.5 0.5)" stroke="black" stroke-opacity="0.13"/>
<path d="M10.991 17.8021C11.1044 17.9341 11.239 18 11.3944 18L19.4262 18C19.5817 18 19.7161 17.9341 19.8297 17.8021C19.9433 17.67 20 17.5138 20 17.3333C20 17.1527 19.9433 16.9966 19.8297 16.8646L15.8137 12.198C15.7001 12.0661 15.5656 12 15.4103 12C15.2549 12 15.1204 12.0661 15.0069 12.198L10.991 16.8646C10.8775 16.9966 10.8206 17.1527 10.8206 17.3333C10.8206 17.5138 10.8775 17.67 10.991 17.8021Z" fill="black"/>
</svg>
