<svg width="22" height="22" viewBox="0 0 22 22" fill="none" xmlns="http://www.w3.org/2000/svg">
<path d="M11 10.2667C9.58222 10.2667 8.37222 9.7592 7.37 8.74427C6.36778 7.73031 5.86667 6.52667 5.86667 5.13333C5.86667 3.71556 6.36778 2.50556 7.37 1.50333C8.37222 0.501111 9.58222 0 11 0C12.4178 0 13.6278 0.501111 14.63 1.50333C15.6322 2.50556 16.1333 3.71556 16.1333 5.13333C16.1333 6.52667 15.6322 7.73031 14.63 8.74427C13.6278 9.7592 12.4178 10.2667 11 10.2667ZM0 21.4133V18.15C0 17.4411 0.195556 16.7811 0.586667 16.17C0.977778 15.5589 1.50333 15.0822 2.16333 14.74C3.60556 14.0311 5.06635 13.4992 6.54573 13.1443C8.02413 12.7903 9.50889 12.6133 11 12.6133C12.4911 12.6133 13.9764 12.7903 15.4557 13.1443C16.9341 13.4992 18.3944 14.0311 19.8367 14.74C20.4967 15.0822 21.0222 15.5589 21.4133 16.17C21.8044 16.7811 22 17.4411 22 18.15V21.4133H0Z" fill="primary"/>
</svg>
