<svg width="18" height="15" viewBox="0 0 18 15" fill="none" xmlns="http://www.w3.org/2000/svg">
<path d="M14.8125 14.5625C16.4453 14.5625 17.2656 13.7578 17.2656 12.1406V2.60156C17.2656 0.984375 16.4453 0.179688 14.8125 0.179688H8.02344C7.10938 0.179688 6.32031 0.414062 5.67969 1.09375L1.07812 5.875C0.570312 6.39844 0.335938 6.86719 0.335938 7.35938C0.335938 7.84375 0.5625 8.32031 1.07812 8.84375L5.6875 13.6016C6.33594 14.2734 7.11719 14.5547 8.03125 14.5547L14.8125 14.5625ZM14.7969 13.3047H8.00781C7.41406 13.3047 7.04688 13.1641 6.63281 12.7422L2.05469 8.01562C1.78906 7.74219 1.71094 7.55469 1.71094 7.35938C1.71094 7.15625 1.79688 6.96875 2.05469 6.69531L6.625 1.95312C7.03125 1.53906 7.41406 1.4375 8 1.4375H14.7969C15.5781 1.4375 16.0078 1.85156 16.0078 2.66406V12.0781C16.0078 12.8906 15.5781 13.3047 14.7969 13.3047ZM7.57031 10.6719C7.74219 10.6719 7.89844 10.6016 8.01562 10.4766L10.2344 8.25L12.4531 10.4766C12.5703 10.5938 12.7266 10.6719 12.9062 10.6719C13.25 10.6719 13.5312 10.3828 13.5312 10.0391C13.5312 9.85938 13.4609 9.71094 13.3438 9.59375L11.125 7.375L13.3516 5.14062C13.4766 5.00781 13.5391 4.875 13.5391 4.70312C13.5391 4.35156 13.2578 4.07812 12.9141 4.07812C12.75 4.07812 12.6094 4.13281 12.4766 4.26562L10.2344 6.5L8 4.27344C7.88281 4.14844 7.74219 4.09375 7.57031 4.09375C7.22656 4.09375 6.94531 4.35938 6.94531 4.71094C6.94531 4.88281 7.00781 5.03125 7.13281 5.14844L9.35156 7.375L7.13281 9.60156C7.00781 9.71094 6.94531 9.86719 6.94531 10.0391C6.94531 10.3828 7.22656 10.6719 7.57031 10.6719Z" fill="black"/>
</svg>
