<svg width="85" height="25" viewBox="0 0 85 25" fill="none" xmlns="http://www.w3.org/2000/svg">
<path d="M19.9198 21.216C17.7864 23.328 15.1624 24.384 12.0478 24.384C8.93308 24.384 6.29842 23.328 4.14375 21.216C2.01042 19.104 0.94375 16.48 0.94375 13.344C0.94375 10.1867 2.02108 7.56267 4.17575 5.472C6.33042 3.36 8.95442 2.304 12.0478 2.304C15.1411 2.304 17.7651 3.36 19.9198 5.472C22.0744 7.56267 23.1518 10.1867 23.1518 13.344C23.1518 16.48 22.0744 19.104 19.9198 21.216ZM18.1918 7.104C16.5064 5.39733 14.4584 4.544 12.0478 4.544C9.63708 4.544 7.58908 5.39733 5.90375 7.104C4.21842 8.81067 3.37575 10.8907 3.37575 13.344C3.37575 15.7973 4.21842 17.8773 5.90375 19.584C7.58908 21.2907 9.63708 22.144 12.0478 22.144C14.4584 22.144 16.5064 21.2907 18.1918 19.584C19.8771 17.8773 20.7198 15.7973 20.7198 13.344C20.7198 10.8907 19.8771 8.81067 18.1918 7.104ZM29.87 24H27.502V1.76L44.142 19.2V2.656H46.51V24.96L29.87 7.52V24Z" fill="#1818FF"/>
<path d="M51.426 0.671999H53.73V24H51.426V0.671999ZM58.0823 10.72H60.3863V24H58.0823V10.72ZM58.0823 6.848C57.7623 6.528 57.6023 6.144 57.6023 5.696C57.6023 5.248 57.7623 4.864 58.0823 4.544C58.4023 4.224 58.7863 4.064 59.2343 4.064C59.6823 4.064 60.0663 4.224 60.3863 4.544C60.7063 4.864 60.8663 5.248 60.8663 5.696C60.8663 6.144 60.7063 6.528 60.3863 6.848C60.0663 7.168 59.6823 7.328 59.2343 7.328C58.7863 7.328 58.4023 7.168 58.0823 6.848ZM70.3705 12.832H67.1065V24H64.8025V12.832H63.5225V10.72H64.8025V4.928C64.8025 3.15733 65.2292 1.90933 66.0825 1.184C66.7652 0.607999 67.6505 0.32 68.7385 0.32C69.3145 0.32 69.8585 0.416 70.3705 0.608V2.848C69.9012 2.656 69.3998 2.56 68.8665 2.56C68.1625 2.56 67.6718 2.79467 67.3945 3.264C67.2025 3.584 67.1065 4.224 67.1065 5.184V10.72H70.3705V12.832ZM82.282 19.552L84.202 20.608C83.754 21.4613 83.21 22.176 82.57 22.752C81.354 23.84 79.882 24.384 78.154 24.384C76.362 24.384 74.8153 23.808 73.514 22.656C72.234 21.4827 71.594 19.744 71.594 17.44C71.594 15.4133 72.17 13.7387 73.322 12.416C74.4953 11.072 76.0633 10.4 78.026 10.4C80.2447 10.4 81.9193 11.2107 83.05 12.832C83.946 14.112 84.362 15.776 84.298 17.824H73.962C73.9833 19.168 74.3993 20.256 75.21 21.088C76.0207 21.92 77.0127 22.336 78.186 22.336C79.2313 22.336 80.138 22.016 80.906 21.376C81.5033 20.864 81.962 20.256 82.282 19.552ZM74.122 15.904H81.93C81.738 14.8587 81.2793 14.0267 80.554 13.408C79.85 12.768 79.0073 12.448 78.026 12.448C77.066 12.448 76.2127 12.7787 75.466 13.44C74.7407 14.08 74.2927 14.9013 74.122 15.904Z" fill="white"/>
</svg>
