<svg width="30" height="30" viewBox="0 0 30 30" fill="none" xmlns="http://www.w3.org/2000/svg">
<rect x="29.5" y="0.5" width="29" height="29" rx="14.5" transform="rotate(90 29.5 0.5)" stroke="black" stroke-opacity="0.12"/>
<path d="M20.009 13.1979C19.8956 13.0659 19.761 13 19.6056 13H11.5738C11.4183 13 11.2839 13.0659 11.1703 13.1979C11.0567 13.33 11 13.4862 11 13.6667C11 13.8473 11.0567 14.0034 11.1703 14.1354L15.1863 18.802C15.2999 18.9339 15.4344 19 15.5897 19C15.7451 19 15.8796 18.9339 15.9931 18.802L20.009 14.1354C20.1225 14.0034 20.1794 13.8473 20.1794 13.6667C20.1794 13.4862 20.1225 13.33 20.009 13.1979Z" fill="black"/>
</svg>
