<svg width="20" height="20" viewBox="0 0 20 20" fill="none" xmlns="http://www.w3.org/2000/svg">
<path d="M11.7677 20L10.7071 18.9394L14.2929 15.3535L4.64646 5.70707L1.06061 9.29293L0 8.23232L1.41414 6.76768L0 5.35354L2.14646 3.20707L1.08586 2.14646L2.14646 1.08586L3.23232 2.12121L5.35354 0L6.76768 1.41414L8.23232 0L9.29293 1.06061L5.70707 4.64646L15.3535 14.2929L18.9394 10.7071L20 11.7677L18.5859 13.2323L20 14.6465L17.8283 16.8182L18.8889 17.8788L17.8283 18.9394L16.7677 17.8788L14.6465 20L13.2323 18.5859L11.7677 20Z" fill="#63CDDA"/>
</svg>
