<svg width="22" height="18" viewBox="0 0 22 18" xmlns="http://www.w3.org/2000/svg" version="1.1">
<path fill="primary" d="M2.45343 17.6863C1.77042 17.6863 1.19059 17.4483 0.713922 16.9724C0.237974 16.4957 0 15.9159 0 15.2328V2.45343C0 1.77042 0.237974 1.19059 0.713922 0.713923C1.19059 0.237975 1.77042 0 2.45343 0H19.5466C20.2296 0 20.8094 0.237975 21.2861 0.713923C21.762 1.19059 22 1.77042 22 2.45343V15.2328C22 15.9159 21.762 16.4957 21.2861 16.9724C20.8094 17.4483 20.2296 17.6863 19.5466 17.6863H2.45343ZM11 10.1912L19.5466 4.79902V2.45343L11 7.84559L2.45343 2.45343V4.79902L11 10.1912Z"/>
</svg>
