<svg width="23" height="24" viewBox="0 0 23 24" fill="none" xmlns="http://www.w3.org/2000/svg">
<path d="M2.3553 24C1.69329 24 1.13495 23.7732 0.680262 23.3197C0.226754 22.8651 0 22.3067 0 21.6447V2.3553C0 1.69329 0.226754 1.13495 0.680262 0.680261C1.13495 0.226753 1.69329 0 2.3553 0H11.6687V1.91357H2.3553C2.25753 1.91357 2.15976 1.96245 2.06199 2.06022C1.96304 2.15917 1.91357 2.25753 1.91357 2.3553V21.6447C1.91357 21.7425 1.96304 21.8402 2.06199 21.938C2.15976 22.037 2.25753 22.0864 2.3553 22.0864H11.6687V24H2.3553ZM17.8529 17.1161L16.4906 15.7538L19.2894 12.9568H8.13487V11.0432H19.2894L16.4906 8.24442L17.8529 6.88213L22.9699 11.9991L17.8529 17.1161Z" fill="primary"/>
</svg>
