<svg width="32" height="32" viewBox="0 0 32 32" fill="none" xmlns="http://www.w3.org/2000/svg">
<path d="M22.687 25.729H3.206C1.438 25.729 0 24.291 0 22.523V3.206C0 1.438 1.438 0 3.206 0H22.686C24.454 0 25.892 1.438 25.892 3.206V22.523C25.893 24.291 24.454 25.729 22.687 25.729ZM3.206 1.5C2.266 1.5 1.5 2.266 1.5 3.206V22.523C1.5 23.463 2.266 24.229 3.206 24.229H22.686C23.626 24.229 24.392 23.463 24.392 22.523V3.206C24.392 2.266 23.626 1.5 22.686 1.5H3.206Z" fill="primary"/>
<path d="M28.2939 31.623H8.81293C7.04493 31.623 5.60693 30.185 5.60693 28.418V24.98C5.60693 24.566 5.94293 24.23 6.35693 24.23C6.77093 24.23 7.10693 24.566 7.10693 24.98V28.418C7.10693 29.358 7.87293 30.123 8.81293 30.123H28.2929C29.2329 30.123 29.9989 29.358 29.9989 28.418V9.1C29.9989 8.16 29.2329 7.395 28.2929 7.395H27.5929C27.1789 7.395 26.8429 7.059 26.8429 6.645C26.8429 6.231 27.1789 5.895 27.5929 5.895H28.2929C30.0609 5.895 31.4989 7.333 31.4989 9.1V28.418C31.4999 30.186 30.0619 31.623 28.2939 31.623Z" fill="primary"/>
<path d="M7.96097 4.495H7.79297C7.37897 4.495 7.04297 4.159 7.04297 3.745C7.04297 3.331 7.37897 2.995 7.79297 2.995H7.96097C8.37497 2.995 8.71097 3.331 8.71097 3.745C8.71097 4.159 8.37497 4.495 7.96097 4.495Z" fill="primary"/>
<path d="M5.70299 4.495H4.18799C3.77399 4.495 3.43799 4.159 3.43799 3.745C3.43799 3.331 3.77399 2.995 4.18799 2.995H5.70399C6.11799 2.995 6.45399 3.331 6.45399 3.745C6.45399 4.159 6.11699 4.495 5.70299 4.495Z" fill="primary"/>
<path d="M9.7712 18.664C8.6062 18.664 7.6582 17.716 7.6582 16.551V9.183C7.6582 8.017 8.6062 7.069 9.7712 7.069C10.0162 7.069 10.3262 7.15 11.1102 7.553C11.6162 7.814 12.2672 8.183 13.0482 8.65L17.2292 11.013C17.9002 11.374 18.3252 12.087 18.3252 12.865C18.3252 13.553 17.9882 14.2 17.4242 14.596L13.2402 16.968C12.2922 17.537 11.5282 17.97 10.9872 18.243C10.2912 18.593 9.9982 18.664 9.7712 18.664ZM9.7012 8.563C9.4332 8.569 9.1582 8.844 9.1582 9.183V16.551C9.1582 16.874 9.4102 17.14 9.7272 17.162C9.7862 17.144 9.9502 17.085 10.3112 16.903C10.8182 16.647 11.5502 16.233 12.4852 15.672L16.6232 13.33C16.7282 13.251 16.8252 13.066 16.8252 12.864C16.8252 12.638 16.7022 12.432 16.5052 12.326L12.2952 9.946C11.5352 9.492 10.8942 9.129 10.4242 8.885C9.8792 8.606 9.7182 8.566 9.7012 8.563Z" fill="primary"/>
<path d="M26.359 29.372H10.875C10.461 29.372 10.125 29.036 10.125 28.622C10.125 28.208 10.461 27.872 10.875 27.872H26.359C26.773 27.872 27.109 28.208 27.109 28.622C27.109 29.036 26.773 29.372 26.359 29.372Z" fill="primary"/>
<path d="M8.74381 29.372H8.52881C8.11481 29.372 7.77881 29.036 7.77881 28.622C7.77881 28.208 8.11481 27.872 8.52881 27.872H8.74381C9.15781 27.872 9.49381 28.208 9.49381 28.622C9.49381 29.036 9.15781 29.372 8.74381 29.372Z" fill="primary"/>
</svg>
