<svg width="32" height="32" viewBox="0 0 32 32" fill="none" xmlns="http://www.w3.org/2000/svg">
<path d="M30.75 31.622H0.75C0.336 31.622 0 31.286 0 30.872C0 30.458 0.336 30.122 0.75 30.122H30.75C31.164 30.122 31.5 30.458 31.5 30.872C31.5 31.286 31.164 31.622 30.75 31.622Z" fill="primary"/>
<path d="M18.7031 31.623C18.2891 31.623 17.9531 31.287 17.9531 30.873V20.528C17.9531 20.114 18.2891 19.778 18.7031 19.778C19.1171 19.778 19.4531 20.114 19.4531 20.528V30.873C19.4531 31.287 19.1171 31.623 18.7031 31.623Z" fill="primary"/>
<path d="M28.259 31.622C27.845 31.622 27.509 31.286 27.509 30.872V1.75C27.509 1.612 27.397 1.5 27.259 1.5H23.353C23.215 1.5 23.103 1.612 23.103 1.75V30.872C23.103 31.286 22.767 31.622 22.353 31.622C21.939 31.622 21.603 31.286 21.603 30.872V1.75C21.603 0.785 22.388 0 23.353 0H27.259C28.224 0 29.009 0.785 29.009 1.75V30.872C29.009 31.286 28.673 31.622 28.259 31.622Z" fill="primary"/>
<path d="M18.7031 31.624C18.2891 31.624 17.9531 31.288 17.9531 30.874V21.811C17.9531 21.397 18.2891 21.061 18.7031 21.061C19.1171 21.061 19.4531 21.397 19.4531 21.811V30.874C19.4531 31.288 19.1171 31.624 18.7031 31.624Z" fill="primary"/>
<path d="M12.7969 31.624C12.3829 31.624 12.0469 31.288 12.0469 30.874V9.812C12.0469 8.847 12.8319 8.062 13.7969 8.062H17.7029C18.6679 8.062 19.4529 8.847 19.4529 9.812V14.812C19.4529 15.226 19.1169 15.562 18.7029 15.562C18.2889 15.562 17.9529 15.226 17.9529 14.812V9.812C17.9529 9.674 17.8409 9.562 17.7029 9.562H13.7969C13.6589 9.562 13.5469 9.674 13.5469 9.812V30.875C13.5469 31.288 13.2109 31.624 12.7969 31.624Z" fill="primary"/>
<path d="M8.93093 31.624C8.51693 31.624 8.18093 31.288 8.18093 30.874V16.812C8.18093 16.674 8.06893 16.562 7.93093 16.562H4.02393C3.88593 16.562 3.77393 16.674 3.77393 16.812V30.875C3.77393 31.289 3.43793 31.625 3.02393 31.625C2.60993 31.625 2.27393 31.289 2.27393 30.875V16.812C2.27393 15.847 3.05893 15.062 4.02393 15.062H7.92993C8.89493 15.062 9.67993 15.847 9.67993 16.812V30.875C9.68093 31.288 9.34493 31.624 8.93093 31.624Z" fill="primary"/>
<path d="M26.2739 4.147C25.8599 4.147 25.5239 3.811 25.5239 3.397V3.229C25.5239 2.815 25.8599 2.479 26.2739 2.479C26.6879 2.479 27.0239 2.815 27.0239 3.229V3.397C27.0239 3.812 26.6879 4.147 26.2739 4.147Z" fill="primary"/>
<path d="M26.2739 7.753C25.8599 7.753 25.5239 7.417 25.5239 7.003V5.487C25.5239 5.073 25.8599 4.737 26.2739 4.737C26.6879 4.737 27.0239 5.073 27.0239 5.487V7.003C27.0239 7.417 26.6879 7.753 26.2739 7.753Z" fill="primary"/>
</svg>
