<svg width="32" height="32" viewBox="0 0 32 32" fill="none" xmlns="http://www.w3.org/2000/svg">
<path d="M16.292 31.5C16.019 31.5 15.76 31.349 15.628 31.099C15.492 30.842 12.209 24.792 4.125 24.792C3.711 24.792 3.375 24.456 3.375 24.042V14.347C3.375 13.933 3.711 13.597 4.125 13.597C4.539 13.597 4.875 13.933 4.875 14.347V23.308C10.414 23.546 13.813 26.385 15.542 28.402V6.792C15.542 2.975 8.442 1.752 4.875 1.534V9.178C4.875 9.592 4.539 9.928 4.125 9.928C3.711 9.928 3.375 9.592 3.375 9.178V0.75C3.375 0.548 3.456 0.354 3.601 0.213C3.746 0.072 3.938 0.008 4.143 0C4.67 0.013 17.042 0.383 17.042 6.792V30.75C17.042 31.095 16.807 31.395 16.472 31.478C16.412 31.492 16.352 31.5 16.292 31.5Z" fill="primary"/>
<path d="M13.7098 9.042C13.4678 9.042 13.2308 8.926 13.0858 8.71C11.2488 5.972 6.92485 6.45 6.88185 6.454C6.46685 6.499 6.09685 6.208 6.04785 5.798C5.99885 5.388 6.29085 5.014 6.70085 4.964C6.91685 4.939 11.9758 4.365 14.3318 7.874C14.5618 8.218 14.4708 8.684 14.1268 8.915C13.9988 9 13.8538 9.042 13.7098 9.042Z" fill="primary"/>
<path d="M13.7098 13.042C13.4678 13.042 13.2308 12.926 13.0858 12.71C11.2488 9.971 6.92485 10.449 6.88185 10.454C6.46685 10.499 6.09685 10.209 6.04785 9.799C5.99885 9.389 6.29085 9.015 6.70085 8.965C6.91685 8.938 11.9758 8.365 14.3318 11.875C14.5618 12.219 14.4708 12.685 14.1268 12.916C13.9988 13 13.8538 13.042 13.7098 13.042Z" fill="primary"/>
<path d="M30.75 31.5C30.555 31.5 30.363 31.424 30.22 31.28C24.467 25.526 17.063 31.104 16.75 31.343C16.497 31.537 16.15 31.55 15.885 31.379C12.674 29.304 9.40397 28.558 6.17597 29.162C5.76497 29.239 5.37697 28.97 5.30097 28.562C5.22497 28.154 5.49297 27.763 5.90097 27.687C9.37597 27.038 12.863 27.766 16.271 29.849C17.984 28.708 24.423 24.981 30 29.11V7.349C28.748 6.441 23.39 3.115 16.64 7.003C16.283 7.21 15.824 7.086 15.616 6.728C15.41 6.369 15.533 5.91 15.892 5.704C24.387 0.808001 31.163 6.348 31.232 6.406C31.402 6.549 31.501 6.759 31.501 6.981V30.75C31.501 31.053 31.318 31.327 31.038 31.443C30.944 31.481 30.847 31.5 30.75 31.5Z" fill="primary"/>
<path d="M0.75 31.499C0.643 31.499 0.535 31.477 0.435 31.43C0.17 31.307 0 31.042 0 30.75V6.542C0 6.2 0.23 5.901 0.562 5.815L3.937 4.94C4.336 4.837 4.748 5.076 4.851 5.478C4.955 5.879 4.714 6.289 4.314 6.393L1.5 7.122V29.334C1.82 29.146 2.198 28.941 2.63 28.74C3.006 28.562 3.452 28.728 3.627 29.103C3.802 29.478 3.64 29.925 3.265 30.1C1.985 30.697 1.243 31.317 1.235 31.323C1.097 31.439 0.924 31.499 0.75 31.499Z" fill="primary"/>
<path d="M27.9682 11.135C27.8432 11.135 27.7152 11.104 27.5982 11.037C24.5272 9.29 21.2942 9.991 19.6412 10.563C19.2502 10.7 18.8242 10.491 18.6872 10.1C18.5512 9.708 18.7592 9.281 19.1512 9.146C21.0442 8.49 24.7532 7.693 28.3402 9.733C28.6992 9.938 28.8252 10.396 28.6212 10.755C28.4822 10.999 28.2292 11.135 27.9682 11.135Z" fill="primary"/>
<path d="M27.9682 14.873C27.8432 14.873 27.7152 14.842 27.5982 14.775C24.5272 13.028 21.2942 13.728 19.6412 14.301C19.2502 14.437 18.8242 14.229 18.6872 13.838C18.5512 13.446 18.7592 13.019 19.1512 12.884C21.0452 12.227 24.7542 11.432 28.3402 13.471C28.6992 13.676 28.8252 14.134 28.6212 14.493C28.4822 14.736 28.2292 14.873 27.9682 14.873Z" fill="primary"/>
<path d="M27.9681 18.269C27.8431 18.269 27.7151 18.238 27.5981 18.171C24.5251 16.423 21.2951 17.123 19.6421 17.696C19.2501 17.834 18.8241 17.624 18.6881 17.233C18.5521 16.841 18.7601 16.414 19.1521 16.279C21.0441 15.623 24.7541 14.827 28.3401 16.867C28.6991 17.072 28.8251 17.53 28.6211 17.889C28.4821 18.132 28.2291 18.269 27.9681 18.269Z" fill="primary"/>
<path d="M27.9692 22.999C27.5552 22.999 27.2192 22.663 27.2192 22.249V22.081C27.2192 21.667 27.5552 21.331 27.9692 21.331C28.3832 21.331 28.7192 21.667 28.7192 22.081V22.249C28.7192 22.663 28.3832 22.999 27.9692 22.999Z" fill="primary"/>
<path d="M27.9692 26.604C27.5552 26.604 27.2192 26.268 27.2192 25.854V24.338C27.2192 23.924 27.5552 23.588 27.9692 23.588C28.3832 23.588 28.7192 23.924 28.7192 24.338V25.854C28.7192 26.268 28.3832 26.604 27.9692 26.604Z" fill="primary"/>
</svg>
